<mxfile host="app.diagrams.net" agent="Mozilla/5.0 (Macintosh; Intel Mac OS X 10_15_7) AppleWebKit/537.36 (KHTML, like Gecko) Chrome/126.0.0.0 Safari/537.36" version="24.7.4">
  <diagram name="Page-1" id="M1p52oLWoaFb7Zi5clXI">
    <mxGraphModel dx="5374" dy="3202" grid="1" gridSize="10" guides="1" tooltips="1" connect="1" arrows="1" fold="1" page="1" pageScale="1" pageWidth="827" pageHeight="1169" math="0" shadow="0">
      <root>
        <mxCell id="0" />
        <mxCell id="1" parent="0" />
        <mxCell id="qsk3lB0-iN4iwRXW-T8n-1" value="Webpage" style="swimlane;whiteSpace=wrap;html=1;" vertex="1" parent="1">
          <mxGeometry y="40" width="820" height="1610" as="geometry" />
        </mxCell>
        <mxCell id="qsk3lB0-iN4iwRXW-T8n-2" value="" style="rounded=0;whiteSpace=wrap;html=1;" vertex="1" parent="qsk3lB0-iN4iwRXW-T8n-1">
          <mxGeometry y="20" width="820" height="50" as="geometry" />
        </mxCell>
        <mxCell id="qsk3lB0-iN4iwRXW-T8n-46" style="edgeStyle=orthogonalEdgeStyle;rounded=0;orthogonalLoop=1;jettySize=auto;html=1;exitX=0;exitY=0.5;exitDx=0;exitDy=0;" edge="1" parent="qsk3lB0-iN4iwRXW-T8n-1" source="qsk3lB0-iN4iwRXW-T8n-3">
          <mxGeometry relative="1" as="geometry">
            <mxPoint x="1042" y="480" as="targetPoint" />
            <Array as="points">
              <mxPoint x="-10" y="45" />
              <mxPoint x="-10" y="-90" />
              <mxPoint x="1043" y="-90" />
            </Array>
          </mxGeometry>
        </mxCell>
        <mxCell id="qsk3lB0-iN4iwRXW-T8n-3" value="Search Bar" style="rounded=1;whiteSpace=wrap;html=1;" vertex="1" parent="qsk3lB0-iN4iwRXW-T8n-1">
          <mxGeometry x="50" y="30" width="220" height="30" as="geometry" />
        </mxCell>
        <mxCell id="qsk3lB0-iN4iwRXW-T8n-59" style="edgeStyle=orthogonalEdgeStyle;rounded=0;orthogonalLoop=1;jettySize=auto;html=1;exitX=0.5;exitY=1;exitDx=0;exitDy=0;" edge="1" parent="qsk3lB0-iN4iwRXW-T8n-1" source="qsk3lB0-iN4iwRXW-T8n-4">
          <mxGeometry relative="1" as="geometry">
            <mxPoint x="430" y="90" as="targetPoint" />
          </mxGeometry>
        </mxCell>
        <mxCell id="qsk3lB0-iN4iwRXW-T8n-4" value="Filter" style="rounded=1;whiteSpace=wrap;html=1;" vertex="1" parent="qsk3lB0-iN4iwRXW-T8n-1">
          <mxGeometry x="330" y="30" width="210" height="30" as="geometry" />
        </mxCell>
        <mxCell id="qsk3lB0-iN4iwRXW-T8n-6" value="" style="rounded=0;whiteSpace=wrap;html=1;" vertex="1" parent="qsk3lB0-iN4iwRXW-T8n-1">
          <mxGeometry y="110" width="820" height="320" as="geometry" />
        </mxCell>
        <mxCell id="qsk3lB0-iN4iwRXW-T8n-7" value="&lt;font style=&quot;font-size: 36px;&quot;&gt;Lit_Logger&lt;/font&gt;" style="text;html=1;align=center;verticalAlign=middle;whiteSpace=wrap;rounded=0;" vertex="1" parent="qsk3lB0-iN4iwRXW-T8n-1">
          <mxGeometry x="240" y="145" width="300" height="250" as="geometry" />
        </mxCell>
        <mxCell id="qsk3lB0-iN4iwRXW-T8n-8" value="Recent reads" style="text;html=1;align=center;verticalAlign=middle;whiteSpace=wrap;rounded=0;" vertex="1" parent="qsk3lB0-iN4iwRXW-T8n-1">
          <mxGeometry x="40" y="450" width="60" height="30" as="geometry" />
        </mxCell>
        <mxCell id="qsk3lB0-iN4iwRXW-T8n-10" value="Most recent book image" style="rounded=0;whiteSpace=wrap;html=1;" vertex="1" parent="qsk3lB0-iN4iwRXW-T8n-1">
          <mxGeometry x="90" y="480" width="110" height="145" as="geometry" />
        </mxCell>
        <mxCell id="qsk3lB0-iN4iwRXW-T8n-20" value="Second Most recent book Image" style="rounded=0;whiteSpace=wrap;html=1;" vertex="1" parent="qsk3lB0-iN4iwRXW-T8n-1">
          <mxGeometry x="240" y="480" width="110" height="145" as="geometry" />
        </mxCell>
        <mxCell id="qsk3lB0-iN4iwRXW-T8n-21" value="Third most recent book image" style="rounded=0;whiteSpace=wrap;html=1;" vertex="1" parent="qsk3lB0-iN4iwRXW-T8n-1">
          <mxGeometry x="400" y="480" width="110" height="145" as="geometry" />
        </mxCell>
        <mxCell id="qsk3lB0-iN4iwRXW-T8n-31" style="edgeStyle=orthogonalEdgeStyle;rounded=0;orthogonalLoop=1;jettySize=auto;html=1;exitX=1;exitY=0.5;exitDx=0;exitDy=0;" edge="1" parent="qsk3lB0-iN4iwRXW-T8n-1" source="qsk3lB0-iN4iwRXW-T8n-22">
          <mxGeometry relative="1" as="geometry">
            <mxPoint x="1150" y="480" as="targetPoint" />
          </mxGeometry>
        </mxCell>
        <mxCell id="qsk3lB0-iN4iwRXW-T8n-22" value="4th most recent book image" style="rounded=0;whiteSpace=wrap;html=1;" vertex="1" parent="qsk3lB0-iN4iwRXW-T8n-1">
          <mxGeometry x="560" y="480" width="110" height="145" as="geometry" />
        </mxCell>
        <mxCell id="qsk3lB0-iN4iwRXW-T8n-23" value="Library" style="rounded=1;whiteSpace=wrap;html=1;" vertex="1" parent="qsk3lB0-iN4iwRXW-T8n-1">
          <mxGeometry x="590" y="30" width="210" height="30" as="geometry" />
        </mxCell>
        <mxCell id="qsk3lB0-iN4iwRXW-T8n-24" value="VISUAL OF DATABASE INCLUDING TOP 20 BOOKS by RATING" style="swimlane;whiteSpace=wrap;html=1;" vertex="1" parent="qsk3lB0-iN4iwRXW-T8n-1">
          <mxGeometry x="30" y="650" width="770" height="620" as="geometry" />
        </mxCell>
        <mxCell id="qsk3lB0-iN4iwRXW-T8n-25" value="BOOK 1" style="rounded=0;whiteSpace=wrap;html=1;" vertex="1" parent="qsk3lB0-iN4iwRXW-T8n-24">
          <mxGeometry y="30" width="770" height="30" as="geometry" />
        </mxCell>
        <mxCell id="qsk3lB0-iN4iwRXW-T8n-26" value="BOOK 2" style="rounded=0;whiteSpace=wrap;html=1;" vertex="1" parent="qsk3lB0-iN4iwRXW-T8n-24">
          <mxGeometry x="-1" y="60" width="770" height="30" as="geometry" />
        </mxCell>
        <mxCell id="qsk3lB0-iN4iwRXW-T8n-27" value="BOOK 3" style="rounded=0;whiteSpace=wrap;html=1;" vertex="1" parent="qsk3lB0-iN4iwRXW-T8n-24">
          <mxGeometry y="90" width="770" height="30" as="geometry" />
        </mxCell>
        <mxCell id="qsk3lB0-iN4iwRXW-T8n-32" style="edgeStyle=orthogonalEdgeStyle;rounded=0;orthogonalLoop=1;jettySize=auto;html=1;exitX=1;exitY=0.5;exitDx=0;exitDy=0;" edge="1" parent="qsk3lB0-iN4iwRXW-T8n-24" source="qsk3lB0-iN4iwRXW-T8n-28">
          <mxGeometry relative="1" as="geometry">
            <mxPoint x="880" y="-100" as="targetPoint" />
          </mxGeometry>
        </mxCell>
        <mxCell id="qsk3lB0-iN4iwRXW-T8n-28" value="BOOK 4" style="rounded=0;whiteSpace=wrap;html=1;" vertex="1" parent="qsk3lB0-iN4iwRXW-T8n-24">
          <mxGeometry x="-1" y="120" width="770" height="30" as="geometry" />
        </mxCell>
        <mxCell id="qsk3lB0-iN4iwRXW-T8n-29" value="BOOK 5" style="rounded=0;whiteSpace=wrap;html=1;" vertex="1" parent="qsk3lB0-iN4iwRXW-T8n-24">
          <mxGeometry x="-1" y="150" width="770" height="30" as="geometry" />
        </mxCell>
        <mxCell id="qsk3lB0-iN4iwRXW-T8n-30" value="BOOK 6" style="rounded=0;whiteSpace=wrap;html=1;" vertex="1" parent="qsk3lB0-iN4iwRXW-T8n-24">
          <mxGeometry x="-1" y="180" width="770" height="30" as="geometry" />
        </mxCell>
        <mxCell id="qsk3lB0-iN4iwRXW-T8n-48" style="edgeStyle=orthogonalEdgeStyle;rounded=0;orthogonalLoop=1;jettySize=auto;html=1;exitX=0.5;exitY=1;exitDx=0;exitDy=0;entryX=-0.001;entryY=0.029;entryDx=0;entryDy=0;entryPerimeter=0;" edge="1" parent="qsk3lB0-iN4iwRXW-T8n-1" source="qsk3lB0-iN4iwRXW-T8n-23" target="qsk3lB0-iN4iwRXW-T8n-24">
          <mxGeometry relative="1" as="geometry">
            <Array as="points">
              <mxPoint x="585" y="90" />
              <mxPoint x="-190" y="90" />
              <mxPoint x="-190" y="668" />
            </Array>
          </mxGeometry>
        </mxCell>
        <mxCell id="qsk3lB0-iN4iwRXW-T8n-49" value="&lt;font size=&quot;3&quot;&gt;LOG&lt;/font&gt;" style="rounded=1;whiteSpace=wrap;html=1;" vertex="1" parent="qsk3lB0-iN4iwRXW-T8n-1">
          <mxGeometry x="330" y="310" width="120" height="60" as="geometry" />
        </mxCell>
        <mxCell id="qsk3lB0-iN4iwRXW-T8n-33" value="" style="rounded=0;whiteSpace=wrap;html=1;" vertex="1" parent="1">
          <mxGeometry x="1200" y="320" width="390" height="520" as="geometry" />
        </mxCell>
        <mxCell id="qsk3lB0-iN4iwRXW-T8n-34" value="Title" style="text;html=1;align=center;verticalAlign=middle;whiteSpace=wrap;rounded=0;" vertex="1" parent="1">
          <mxGeometry x="1350" y="350" width="60" height="30" as="geometry" />
        </mxCell>
        <mxCell id="qsk3lB0-iN4iwRXW-T8n-35" value="Image" style="whiteSpace=wrap;html=1;aspect=fixed;" vertex="1" parent="1">
          <mxGeometry x="1320" y="420" width="140" height="140" as="geometry" />
        </mxCell>
        <mxCell id="qsk3lB0-iN4iwRXW-T8n-36" value="ISBN" style="text;html=1;align=center;verticalAlign=middle;whiteSpace=wrap;rounded=0;" vertex="1" parent="1">
          <mxGeometry x="1230" y="585" width="60" height="30" as="geometry" />
        </mxCell>
        <mxCell id="qsk3lB0-iN4iwRXW-T8n-37" value="Author" style="text;html=1;align=center;verticalAlign=middle;whiteSpace=wrap;rounded=0;" vertex="1" parent="1">
          <mxGeometry x="1230" y="615" width="60" height="30" as="geometry" />
        </mxCell>
        <mxCell id="qsk3lB0-iN4iwRXW-T8n-38" value="Genre 1" style="text;html=1;align=center;verticalAlign=middle;whiteSpace=wrap;rounded=0;" vertex="1" parent="1">
          <mxGeometry x="1230" y="645" width="60" height="30" as="geometry" />
        </mxCell>
        <mxCell id="qsk3lB0-iN4iwRXW-T8n-39" value="Genre 2" style="text;html=1;align=center;verticalAlign=middle;whiteSpace=wrap;rounded=0;" vertex="1" parent="1">
          <mxGeometry x="1230" y="680" width="60" height="30" as="geometry" />
        </mxCell>
        <mxCell id="qsk3lB0-iN4iwRXW-T8n-40" value="Genre 3" style="text;html=1;align=center;verticalAlign=middle;whiteSpace=wrap;rounded=0;" vertex="1" parent="1">
          <mxGeometry x="1230" y="710" width="60" height="30" as="geometry" />
        </mxCell>
        <mxCell id="qsk3lB0-iN4iwRXW-T8n-41" value="Publisher" style="text;html=1;align=center;verticalAlign=middle;whiteSpace=wrap;rounded=0;" vertex="1" parent="1">
          <mxGeometry x="1230" y="740" width="60" height="30" as="geometry" />
        </mxCell>
        <mxCell id="qsk3lB0-iN4iwRXW-T8n-42" value="Rating" style="text;html=1;align=center;verticalAlign=middle;whiteSpace=wrap;rounded=0;" vertex="1" parent="1">
          <mxGeometry x="1230" y="800" width="60" height="30" as="geometry" />
        </mxCell>
        <mxCell id="qsk3lB0-iN4iwRXW-T8n-45" value="Format" style="text;html=1;align=center;verticalAlign=middle;whiteSpace=wrap;rounded=0;" vertex="1" parent="1">
          <mxGeometry x="1230" y="770" width="60" height="30" as="geometry" />
        </mxCell>
        <mxCell id="qsk3lB0-iN4iwRXW-T8n-51" value="Vertical Container" style="swimlane;whiteSpace=wrap;html=1;" vertex="1" parent="1">
          <mxGeometry x="-870" y="150" width="580" height="780" as="geometry" />
        </mxCell>
        <mxCell id="qsk3lB0-iN4iwRXW-T8n-52" value="" style="rounded=0;whiteSpace=wrap;html=1;" vertex="1" parent="qsk3lB0-iN4iwRXW-T8n-51">
          <mxGeometry x="30" y="90" width="520" height="550" as="geometry" />
        </mxCell>
        <mxCell id="qsk3lB0-iN4iwRXW-T8n-53" value="" style="rounded=0;whiteSpace=wrap;html=1;" vertex="1" parent="qsk3lB0-iN4iwRXW-T8n-51">
          <mxGeometry x="43" y="100" width="487" height="60" as="geometry" />
        </mxCell>
        <mxCell id="qsk3lB0-iN4iwRXW-T8n-54" value="" style="rounded=0;whiteSpace=wrap;html=1;" vertex="1" parent="qsk3lB0-iN4iwRXW-T8n-51">
          <mxGeometry y="20" width="580" height="50" as="geometry" />
        </mxCell>
        <mxCell id="qsk3lB0-iN4iwRXW-T8n-55" value="Home" style="rounded=1;whiteSpace=wrap;html=1;" vertex="1" parent="qsk3lB0-iN4iwRXW-T8n-51">
          <mxGeometry x="226.5" y="25" width="120" height="40" as="geometry" />
        </mxCell>
        <mxCell id="qsk3lB0-iN4iwRXW-T8n-56" value="Library" style="rounded=1;whiteSpace=wrap;html=1;" vertex="1" parent="qsk3lB0-iN4iwRXW-T8n-51">
          <mxGeometry x="440" y="25" width="120" height="40" as="geometry" />
        </mxCell>
        <mxCell id="qsk3lB0-iN4iwRXW-T8n-57" value="Search" style="rounded=1;whiteSpace=wrap;html=1;" vertex="1" parent="qsk3lB0-iN4iwRXW-T8n-51">
          <mxGeometry x="30" y="25" width="120" height="40" as="geometry" />
        </mxCell>
        <mxCell id="qsk3lB0-iN4iwRXW-T8n-60" value="Log your latest read" style="text;html=1;align=center;verticalAlign=middle;whiteSpace=wrap;rounded=0;" vertex="1" parent="qsk3lB0-iN4iwRXW-T8n-51">
          <mxGeometry x="231.5" y="112.5" width="110" height="35" as="geometry" />
        </mxCell>
        <mxCell id="qsk3lB0-iN4iwRXW-T8n-66" value="Title" style="text;html=1;align=center;verticalAlign=middle;whiteSpace=wrap;rounded=0;" vertex="1" parent="qsk3lB0-iN4iwRXW-T8n-51">
          <mxGeometry x="60" y="200" width="60" height="30" as="geometry" />
        </mxCell>
        <mxCell id="qsk3lB0-iN4iwRXW-T8n-67" value="Author Surname" style="text;html=1;align=center;verticalAlign=middle;whiteSpace=wrap;rounded=0;" vertex="1" parent="qsk3lB0-iN4iwRXW-T8n-51">
          <mxGeometry x="60" y="240" width="60" height="30" as="geometry" />
        </mxCell>
        <mxCell id="qsk3lB0-iN4iwRXW-T8n-68" value="Author Forename(s)" style="text;html=1;align=center;verticalAlign=middle;whiteSpace=wrap;rounded=0;" vertex="1" parent="qsk3lB0-iN4iwRXW-T8n-51">
          <mxGeometry x="60" y="280" width="60" height="30" as="geometry" />
        </mxCell>
        <mxCell id="qsk3lB0-iN4iwRXW-T8n-69" value="IMG URL" style="text;html=1;align=center;verticalAlign=middle;whiteSpace=wrap;rounded=0;" vertex="1" parent="qsk3lB0-iN4iwRXW-T8n-51">
          <mxGeometry x="60" y="320" width="60" height="30" as="geometry" />
        </mxCell>
        <mxCell id="qsk3lB0-iN4iwRXW-T8n-70" value="ISBN" style="text;html=1;align=center;verticalAlign=middle;whiteSpace=wrap;rounded=0;" vertex="1" parent="qsk3lB0-iN4iwRXW-T8n-51">
          <mxGeometry x="60" y="360" width="60" height="30" as="geometry" />
        </mxCell>
        <mxCell id="qsk3lB0-iN4iwRXW-T8n-71" value="GENRE 1" style="text;html=1;align=center;verticalAlign=middle;whiteSpace=wrap;rounded=0;" vertex="1" parent="qsk3lB0-iN4iwRXW-T8n-51">
          <mxGeometry x="60" y="404.5" width="60" height="30" as="geometry" />
        </mxCell>
        <mxCell id="qsk3lB0-iN4iwRXW-T8n-72" value="GENRE 2" style="text;html=1;align=center;verticalAlign=middle;whiteSpace=wrap;rounded=0;" vertex="1" parent="qsk3lB0-iN4iwRXW-T8n-51">
          <mxGeometry x="60" y="440" width="60" height="30" as="geometry" />
        </mxCell>
        <mxCell id="qsk3lB0-iN4iwRXW-T8n-50" style="edgeStyle=orthogonalEdgeStyle;rounded=0;orthogonalLoop=1;jettySize=auto;html=1;exitX=0;exitY=0.5;exitDx=0;exitDy=0;" edge="1" parent="1" source="qsk3lB0-iN4iwRXW-T8n-49" target="qsk3lB0-iN4iwRXW-T8n-51">
          <mxGeometry relative="1" as="geometry">
            <mxPoint x="-484" y="380" as="targetPoint" />
          </mxGeometry>
        </mxCell>
        <mxCell id="qsk3lB0-iN4iwRXW-T8n-74" style="edgeStyle=orthogonalEdgeStyle;rounded=0;orthogonalLoop=1;jettySize=auto;html=1;exitX=1;exitY=0.25;exitDx=0;exitDy=0;" edge="1" parent="1" source="qsk3lB0-iN4iwRXW-T8n-73">
          <mxGeometry relative="1" as="geometry">
            <mxPoint x="30" y="740" as="targetPoint" />
          </mxGeometry>
        </mxCell>
        <mxCell id="qsk3lB0-iN4iwRXW-T8n-73" value="&lt;h1 style=&quot;margin-top: 0px;&quot;&gt;&lt;span style=&quot;background-color: initial;&quot;&gt;Book 1&lt;/span&gt;&lt;br&gt;&lt;/h1&gt;&lt;div&gt;&lt;span style=&quot;background-color: initial;&quot;&gt;Maybe each line will be expanded to show Image, title, author, genre 1&lt;/span&gt;&lt;/div&gt;" style="text;html=1;whiteSpace=wrap;overflow=hidden;rounded=0;" vertex="1" parent="1">
          <mxGeometry x="-230" y="710" width="180" height="120" as="geometry" />
        </mxCell>
      </root>
    </mxGraphModel>
  </diagram>
</mxfile>
